<svg xmlns="http://www.w3.org/2000/svg" xmlns:xlink="http://www.w3.org/1999/xlink" viewbox="0 0 16 16">
  <defs>
    <symbol id="category">
      <path d="M 1,14 L 1,2 7,2 9,4 15,4 15,14 Z M 14,13 L 14,5 2,5 2,13 Z" />
    </symbol>
    <symbol id="clock">
      <path d="M 1,8 A 7 7 0 1 1 15,8 L 14,8 A 6 6 0 1 0 2,8 Z M 2,8 A 6 6 0 1 0 14,8 L 15,8 A 7 7 0 1 1 1,8 Z M 7,9 L 7,3 8,3 8,8 13,8 13,9 Z" />
    </symbol>
    <symbol id="feed">
      <path d="M 1,13 A 2 2 0 1 1 5,13 Z M 1,13 A 2 2 0 1 0 5,13 Z M 1,8 L 1,6 A 9 9 0 0 1 10,15 L 8,15 A 7 7 0 0 0 1,8 Z M 1,3 L 1,1 A 14 14 0 0 1 15,15 L 13,15 A 12 12 0 0 0 1,3 Z" />>
    </symbol>
    <symbol id="home">
      <path d="M 1,8 L 8,1 15,8 Z M 13,7 L 8,2 3,7 Z M 3,15 L 3,8 4,8 4,14 7,14 7,11 9,11 9,14 12,14 12,8 13,8 13,15 Z" />
    </symbol>
    <symbol id="info">
      <path d="M 1,8 A 7 7 0 1 1 15,8 L 14,8 A 6 6 0 1 0 2,8 Z M 2,8 A 6 6 0 1 0 14,8 L 15,8 A 7 7 0 1 1 1,8 Z M 7.5,5 L 7.5,4 8.5,4 8.5,5 Z M 7.5,12 L 7.5,6 8.5,6 8.5,12 Z" />
    </symbol>
    <symbol id="tag">
      <path d="M 1,15 L 1,9 9,1 15,7 7,15 Z M 2,14 L 5,14 2,11 Z" />
    </symbol>
  </defs>
</svg>